<svg width="65" height="65" viewBox="0 0 65 65" fill="none" xmlns="http://www.w3.org/2000/svg">
<path d="M62.8917 42.1678C57.726 59.064 39.8412 68.5736 22.9449 63.4078C6.04862 58.2421 -3.46088 40.3573 1.70483 23.4611C6.87054 6.56478 24.7553 -2.94472 41.6516 2.22099C58.5479 7.3867 68.0574 25.2715 62.8917 42.1678Z" fill="#F588B9"/>
<path d="M22.346 29.7722L28.0446 28.6843C28.0622 28.681 28.0765 28.6681 28.0817 28.6509L28.8488 26.1429C28.8595 26.1079 28.829 26.0746 28.7934 26.0825L19.3702 28.1555C19.3532 28.1592 19.3394 28.1719 19.3343 28.1886L18.8186 29.8749C18.8131 29.8927 18.8184 29.912 18.8321 29.9243L25.7258 36.1218C25.7517 36.1451 25.7932 36.1333 25.8035 36.0997L26.5718 33.5878C26.5773 33.5697 26.5718 33.5501 26.5576 33.5378L22.323 29.8555C22.2929 29.8294 22.3066 29.7797 22.346 29.7722Z" fill="#FFEDF5"/>
<path d="M22.346 29.7722L28.0446 28.6843C28.0622 28.681 28.0765 28.6681 28.0817 28.6509L28.8488 26.1429C28.8595 26.1079 28.829 26.0746 28.7934 26.0825L19.3702 28.1555C19.3532 28.1592 19.3394 28.1719 19.3343 28.1886L18.8186 29.8749C18.8131 29.8927 18.8184 29.912 18.8321 29.9243L25.7258 36.1218C25.7517 36.1451 25.7932 36.1333 25.8035 36.0997L26.5718 33.5878C26.5773 33.5697 26.5718 33.5501 26.5576 33.5378L22.323 29.8555C22.2929 29.8294 22.3066 29.7797 22.346 29.7722Z" fill="#FFEDF5"/>
<path d="M22.346 29.7722L28.0446 28.6843C28.0622 28.681 28.0765 28.6681 28.0817 28.6509L28.8488 26.1429C28.8595 26.1079 28.829 26.0746 28.7934 26.0825L19.3702 28.1555C19.3532 28.1592 19.3394 28.1719 19.3343 28.1886L18.8186 29.8749C18.8131 29.8927 18.8184 29.912 18.8321 29.9243L25.7258 36.1218C25.7517 36.1451 25.7932 36.1333 25.8035 36.0997L26.5718 33.5878C26.5773 33.5697 26.5718 33.5501 26.5576 33.5378L22.323 29.8555C22.2929 29.8294 22.3066 29.7797 22.346 29.7722Z" fill="#FFEDF5"/>
<path d="M42.1055 35.6779L37.9712 31.6512C37.9585 31.6388 37.9538 31.6202 37.959 31.603L38.7261 29.095C38.7368 29.06 38.7809 29.0491 38.8062 29.0751L45.489 35.9618C45.501 35.9742 45.5053 35.9923 45.5002 36.009L44.9845 37.6953C44.979 37.7131 44.9638 37.7263 44.9454 37.729L35.733 39.1128C35.6984 39.118 35.6705 39.0854 35.6807 39.0518L36.449 36.5399C36.4546 36.5218 36.4701 36.5085 36.4888 36.506L42.0779 35.7599C42.1176 35.7546 42.1341 35.7057 42.1055 35.6779Z" fill="#FFEDF5"/>
<path d="M42.1055 35.6779L37.9712 31.6512C37.9585 31.6388 37.9538 31.6202 37.959 31.603L38.7261 29.095C38.7368 29.06 38.7809 29.0491 38.8062 29.0751L45.489 35.9618C45.501 35.9742 45.5053 35.9923 45.5002 36.009L44.9845 37.6953C44.979 37.7131 44.9638 37.7263 44.9454 37.729L35.733 39.1128C35.6984 39.118 35.6705 39.0854 35.6807 39.0518L36.449 36.5399C36.4546 36.5218 36.4701 36.5085 36.4888 36.506L42.0779 35.7599C42.1176 35.7546 42.1341 35.7057 42.1055 35.6779Z" fill="#FFEDF5"/>
<path d="M42.1055 35.6779L37.9712 31.6512C37.9585 31.6388 37.9538 31.6202 37.959 31.603L38.7261 29.095C38.7368 29.06 38.7809 29.0491 38.8062 29.0751L45.489 35.9618C45.501 35.9742 45.5053 35.9923 45.5002 36.009L44.9845 37.6953C44.979 37.7131 44.9638 37.7263 44.9454 37.729L35.733 39.1128C35.6984 39.118 35.6705 39.0854 35.6807 39.0518L36.449 36.5399C36.4546 36.5218 36.4701 36.5085 36.4888 36.506L42.0779 35.7599C42.1176 35.7546 42.1341 35.7057 42.1055 35.6779Z" fill="#FFEDF5"/>
<path d="M37.4448 27.486L34.9428 26.7382C34.9236 26.7324 34.9028 26.7394 34.8907 26.7555L26.3294 38.1702C26.3094 38.1969 26.3217 38.2352 26.3534 38.2447L28.8555 38.9925C28.8747 38.9982 28.8955 38.9913 28.9076 38.9751L37.4689 27.5604C37.4889 27.5337 37.4765 27.4954 37.4448 27.486Z" fill="#FFEDF5"/>
</svg>
