<svg width="198" height="212" viewBox="0 0 198 212" fill="none" xmlns="http://www.w3.org/2000/svg">
<g filter="url(#filter0_f_55_2586)">
<path d="M158.294 190.384L155.429 189.713L159.187 173.673C175.218 167.155 188.142 153.263 192.437 134.931C201.43 96.5487 168.21 60.3628 129.203 66.9357C132.532 60.464 131.717 53.6255 127.501 48.4075L127.052 37.4248L138.277 43.6806L143.646 20.7659L130.81 21.3845L137.066 10.1596L114.152 4.7908L114.77 17.6263L103.545 11.3705L98.1765 34.2852L111.012 33.6666L105.732 43.3071C100.209 46.2434 95.8685 51.8739 95.9765 59.1509C63.9484 35.9348 18.1122 53.5983 9.11949 91.9804C4.82445 110.312 10.2322 128.5 21.6992 141.46L17.9411 157.5L15.0767 156.829C10.4938 155.755 5.54419 158.826 4.47043 163.409C3.39667 167.992 6.4672 172.941 11.0501 174.015L154.267 207.57C158.85 208.644 163.799 205.573 164.873 200.991C165.947 196.408 162.876 191.458 158.294 190.384ZM42.198 157.14C38.7608 156.335 37.0062 153.507 37.8115 150.07C38.6168 146.632 41.4452 144.878 44.8824 145.683C48.3196 146.488 50.0742 149.317 49.2688 152.754C48.4635 156.191 45.0623 157.812 42.198 157.14ZM65.1126 162.509C61.6754 161.704 59.9209 158.876 60.7262 155.438C61.5315 152.001 64.3598 150.247 67.797 151.052C71.2343 151.857 72.9888 154.686 72.1835 158.123C71.3782 161.56 67.977 163.18 65.1126 162.509ZM76.2101 140.937L26.9435 129.394C20.2296 119.36 17.624 107.268 20.5768 94.6648C28.0932 62.5843 66.7242 49.88 91.4392 70.7785C92.0121 70.9127 91.8779 71.4856 92.4507 71.6198L76.2101 140.937ZM122.253 21.7969C125.691 22.6022 127.445 25.4306 126.64 28.8678C125.835 32.305 123.006 34.0595 119.569 33.2542C116.132 32.4489 114.377 29.6206 115.183 26.1834C115.988 22.7462 118.816 20.9916 122.253 21.7969ZM110.845 70.4906C114.282 71.2959 116.037 74.1243 115.231 77.5615C114.426 80.9987 111.598 82.7533 108.16 81.9479C104.723 81.1426 102.969 78.3143 103.774 74.8771C104.579 71.4399 107.408 69.6853 110.845 70.4906ZM101.449 110.591C104.887 111.397 106.641 114.225 105.836 117.662C105.03 121.099 102.202 122.854 98.7649 122.049C95.3277 121.243 93.5732 118.415 94.3785 114.978C95.1838 111.541 98.0121 109.786 101.449 110.591ZM88.0273 167.878C84.5901 167.073 82.8355 164.244 83.6409 160.807C84.4462 157.37 87.2745 155.615 90.7117 156.421C94.1489 157.226 95.9035 160.054 95.0982 163.492C94.2929 166.929 90.8917 168.549 88.0273 167.878ZM110.942 173.247C107.505 172.441 105.75 169.613 106.556 166.176C107.361 162.739 110.189 160.984 113.626 161.789C117.064 162.595 118.818 165.423 118.013 168.86C117.208 172.298 113.806 173.918 110.942 173.247ZM133.857 178.616C130.42 177.81 128.665 174.982 129.47 171.545C130.276 168.108 133.104 166.353 136.541 167.158C139.978 167.964 141.733 170.792 140.928 174.229C140.122 177.666 136.721 179.287 133.857 178.616ZM110.582 148.99L126.823 79.673C127.396 79.8072 127.53 79.2344 128.103 79.3686C159.529 71.6237 188.496 100.166 180.98 132.246C178.027 144.85 170.321 154.526 159.849 160.533L110.582 148.99Z" fill="#F3F3F1"/>
</g>
<defs>
<filter id="filter0_f_55_2586" x="0.255859" y="0.790771" width="197.666" height="210.994" filterUnits="userSpaceOnUse" color-interpolation-filters="sRGB">
<feFlood flood-opacity="0" result="BackgroundImageFix"/>
<feBlend mode="normal" in="SourceGraphic" in2="BackgroundImageFix" result="shape"/>
<feGaussianBlur stdDeviation="2" result="effect1_foregroundBlur_55_2586"/>
</filter>
</defs>
</svg>
