<svg width="154" height="118" viewBox="0 0 154 118" fill="none" xmlns="http://www.w3.org/2000/svg">
<path d="M153.488 66.2445C166.28 101.389 148.159 140.249 113.015 153.04C77.8704 165.832 39.0107 147.711 26.2192 112.567C13.4277 77.4223 31.5483 38.5626 66.6926 25.7711C101.837 12.9796 140.697 31.1001 153.488 66.2445Z" fill="#A2B87E"/>
<path d="M75.4216 112.225C74.5532 111.829 74.2001 110.782 74.6516 109.942L82.1695 95.9453L66.1753 98.4526C65.2365 98.5998 64.3676 97.9258 64.2767 96.9798L63.4285 88.155C63.3366 87.1984 64.0782 86.3658 65.039 86.3468L81.1486 86.0289L70.8141 73.667C70.1977 72.9296 70.339 71.8237 71.1211 71.2651L78.3354 66.1123C79.1087 65.56 80.1875 65.7731 80.6928 66.578L89.2998 80.29L94.9241 65.4311C95.2618 64.5388 96.2836 64.1178 97.152 64.5133L105.258 68.2051C106.128 68.6013 106.48 69.6512 106.026 70.4921L98.4719 84.4674L114.466 81.9601C115.405 81.8129 116.274 82.4869 116.365 83.4329L117.213 92.2597C117.305 93.2156 116.564 94.0479 115.604 94.0679L99.5348 94.403L109.83 106.746C110.445 107.483 110.303 108.588 109.522 109.146L102.306 114.3C101.533 114.853 100.454 114.64 99.9486 113.835L91.3416 100.123L85.7567 114.995C85.4206 115.89 84.3971 116.313 83.5272 115.917L75.4216 112.225Z" fill="#ECFFCE"/>
</svg>
