<svg width="154" height="118" viewBox="0 0 154 118" fill="none" xmlns="http://www.w3.org/2000/svg">
<path d="M153.488 66.2445C166.28 101.389 148.159 140.249 113.015 153.04C77.8704 165.832 39.0107 147.711 26.2192 112.567C13.4277 77.4223 31.5483 38.5626 66.6926 25.7711C101.837 12.9796 140.697 31.1001 153.488 66.2445Z" fill="#F588B9"/>
<path d="M69.1539 96.9408L77.4018 87.8422C77.4272 87.8142 77.435 87.7741 77.422 87.7384L75.5238 82.5213C75.4974 82.4486 75.4033 82.4312 75.3531 82.4898L62.0636 97.9986C62.0396 98.0266 62.0326 98.0655 62.0452 98.1003L63.3215 101.608C63.335 101.645 63.3685 101.671 63.4074 101.674L82.9564 103.37C83.0299 103.376 83.085 103.303 83.0595 103.233L81.1584 98.0079C81.1447 97.9702 81.1104 97.9442 81.0708 97.9415L69.2212 97.111C69.1371 97.1051 69.0969 97.0036 69.1539 96.9408Z" fill="#FFEDF5"/>
<path d="M69.1539 96.9408L77.4018 87.8422C77.4272 87.8142 77.435 87.7741 77.422 87.7384L75.5238 82.5213C75.4974 82.4486 75.4033 82.4312 75.3531 82.4898L62.0636 97.9986C62.0396 98.0266 62.0326 98.0655 62.0452 98.1003L63.3215 101.608C63.335 101.645 63.3685 101.671 63.4074 101.674L82.9564 103.37C83.0299 103.376 83.085 103.303 83.0595 103.233L81.1584 98.0079C81.1447 97.9702 81.1104 97.9442 81.0708 97.9415L69.2212 97.111C69.1371 97.1051 69.0969 97.0036 69.1539 96.9408Z" fill="#FFEDF5"/>
<path d="M69.1539 96.9408L77.4018 87.8422C77.4272 87.8142 77.435 87.7741 77.422 87.7384L75.5238 82.5213C75.4974 82.4486 75.4033 82.4312 75.3531 82.4898L62.0636 97.9986C62.0396 98.0266 62.0326 98.0655 62.0452 98.1003L63.3215 101.608C63.335 101.645 63.3685 101.671 63.4074 101.674L82.9564 103.37C83.0299 103.376 83.085 103.303 83.0595 103.233L81.1584 98.0079C81.1447 97.9702 81.1104 97.9442 81.0708 97.9415L69.2212 97.111C69.1371 97.1051 69.0969 97.0036 69.1539 96.9408Z" fill="#FFEDF5"/>
<path d="M110.081 81.7527L97.9626 80.2122C97.9252 80.2075 97.8936 80.182 97.8806 80.1463L95.9824 74.9292C95.9559 74.8565 96.0165 74.7818 96.0923 74.7936L116.163 77.9225C116.199 77.9282 116.229 77.9532 116.242 77.988L117.518 81.4957C117.532 81.5328 117.523 81.5744 117.495 81.6024L103.684 95.6775C103.632 95.7304 103.544 95.7109 103.518 95.641L101.617 90.4158C101.603 90.3782 101.613 90.3359 101.641 90.3079L110.139 81.9265C110.199 81.867 110.165 81.7634 110.081 81.7527Z" fill="#FFEDF5"/>
<path d="M110.081 81.7527L97.9626 80.2122C97.9252 80.2075 97.8936 80.182 97.8806 80.1463L95.9824 74.9292C95.9559 74.8565 96.0165 74.7818 96.0923 74.7936L116.163 77.9225C116.199 77.9282 116.229 77.9532 116.242 77.988L117.518 81.4957C117.532 81.5328 117.523 81.5744 117.495 81.6024L103.684 95.6775C103.632 95.7304 103.544 95.7109 103.518 95.641L101.617 90.4158C101.603 90.3782 101.613 90.3359 101.641 90.3079L110.139 81.9265C110.199 81.867 110.165 81.7634 110.081 81.7527Z" fill="#FFEDF5"/>
<path d="M110.081 81.7527L97.9626 80.2122C97.9252 80.2075 97.8936 80.182 97.8806 80.1463L95.9824 74.9292C95.9559 74.8565 96.0165 74.7818 96.0923 74.7936L116.163 77.9225C116.199 77.9282 116.229 77.9532 116.242 77.988L117.518 81.4957C117.532 81.5328 117.523 81.5744 117.495 81.6024L103.684 95.6775C103.632 95.7304 103.544 95.7109 103.518 95.641L101.617 90.4158C101.603 90.3782 101.613 90.3359 101.641 90.3079L110.139 81.9265C110.199 81.867 110.165 81.7634 110.081 81.7527Z" fill="#FFEDF5"/>
<path d="M91.7666 73.8413L86.5842 75.7645C86.5444 75.7792 86.5181 75.8175 86.5182 75.8602L86.5863 106.063C86.5865 106.134 86.6562 106.183 86.7218 106.159L91.9043 104.236C91.944 104.221 91.9704 104.183 91.9703 104.14L91.9021 73.9366C91.9019 73.8659 91.8323 73.8169 91.7666 73.8413Z" fill="#FFEDF5"/>
</svg>
