<svg width="154" height="118" viewBox="0 0 154 118" fill="none" xmlns="http://www.w3.org/2000/svg">
<path d="M153.488 66.2445C166.28 101.389 148.159 140.249 113.015 153.04C77.8704 165.832 39.0107 147.711 26.2192 112.567C13.4277 77.4223 31.5483 38.5626 66.6926 25.7711C101.837 12.9796 140.697 31.1001 153.488 66.2445Z" fill="#F28164"/>
<path d="M71.2751 95.4604C71.2299 95.2851 71.3355 95.1064 71.5108 95.0612L78.3652 93.2963C78.5406 93.2512 78.7193 93.3567 78.7644 93.532L80.5126 100.321C80.5577 100.497 80.4522 100.675 80.2769 100.721L73.4224 102.486C73.2471 102.531 73.0684 102.425 73.0232 102.25L71.2751 95.4604Z" fill="#FFBCAB"/>
<path d="M101.441 87.693C101.396 87.5177 101.501 87.3389 101.676 87.2938L108.531 85.5289C108.706 85.4837 108.885 85.5893 108.93 85.7646L110.678 92.554C110.723 92.7293 110.618 92.9081 110.443 92.9532L103.588 94.7181C103.413 94.7632 103.234 94.6577 103.189 94.4824L101.441 87.693Z" fill="#FFBCAB"/>
<path d="M80.677 100.956C80.6319 100.78 80.7374 100.602 80.9127 100.557L102.954 94.8813C103.129 94.8362 103.308 94.9417 103.353 95.117L105.101 101.906C105.146 102.082 105.041 102.26 104.865 102.306L82.8244 107.981C82.649 108.026 82.4703 107.92 82.4252 107.745L80.677 100.956Z" fill="#FFBCAB"/>
<path d="M74.8538 78.3405C74.8086 78.1651 74.9142 77.9864 75.0895 77.9413L81.9439 76.1764C82.1192 76.1312 82.298 76.2368 82.3431 76.4121L84.0913 83.2015C84.1364 83.3768 84.0309 83.5555 83.8556 83.6007L77.0011 85.3656C76.8258 85.4107 76.6471 85.3052 76.6019 85.1299L74.8538 78.3405Z" fill="#FFBCAB"/>
<path d="M90.0409 74.4304C89.9958 74.2551 90.1013 74.0763 90.2766 74.0312L97.1311 72.2663C97.3064 72.2212 97.4851 72.3267 97.5303 72.502L99.2784 79.2914C99.3236 79.4667 99.218 79.6455 99.0427 79.6906L92.1883 81.4555C92.013 81.5007 91.8342 81.3951 91.7891 81.2198L90.0409 74.4304Z" fill="#FFBCAB"/>
</svg>
