<svg width="99" height="95" viewBox="0 0 99 95" fill="none" xmlns="http://www.w3.org/2000/svg">
<path d="M75.4739 26.5324C82.3541 46.8467 71.5296 69.0874 51.2967 76.2085C31.0639 83.3295 9.08441 72.6342 2.20424 52.3199C-4.67594 32.0056 6.14856 9.76484 26.3814 2.64383C46.6143 -4.47718 68.5937 6.2181 75.4739 26.5324Z" fill="#9FA8FE"/>
<path d="M27.3809 43.3268L31.8486 38.7065C31.9087 38.6444 31.9287 38.5547 31.9004 38.4741L31.0159 35.9503C30.9583 35.7861 30.742 35.7439 30.6233 35.8737L23.1598 44.0347C23.1031 44.0967 23.0849 44.1839 23.1124 44.2623L23.7256 46.0118C23.7549 46.0955 23.831 46.1547 23.9208 46.1636L34.6179 47.2286C34.7872 47.2455 34.9179 47.0837 34.8626 46.9258L33.9716 44.3837C33.9419 44.2988 33.864 44.2392 33.7727 44.2316L27.5281 43.7113C27.3342 43.6951 27.2464 43.4659 27.3809 43.3268Z" fill="#9FA8FE"/>
<path d="M27.3809 43.3268L31.8486 38.7065C31.9087 38.6444 31.9287 38.5547 31.9004 38.4741L31.0159 35.9503C30.9583 35.7861 30.742 35.7439 30.6233 35.8737L23.1598 44.0347C23.1031 44.0967 23.0849 44.1839 23.1124 44.2623L23.7256 46.0118C23.7549 46.0955 23.831 46.1547 23.9208 46.1636L34.6179 47.2286C34.7872 47.2455 34.9179 47.0837 34.8626 46.9258L33.9716 44.3837C33.9419 44.2988 33.864 44.2392 33.7727 44.2316L27.5281 43.7113C27.3342 43.6951 27.2464 43.4659 27.3809 43.3268Z" fill="#9FA8FE"/>
<path d="M27.3809 43.3268L31.8486 38.7065C31.9087 38.6444 31.9287 38.5547 31.9004 38.4741L31.0159 35.9503C30.9583 35.7861 30.742 35.7439 30.6233 35.8737L23.1598 44.0347C23.1031 44.0967 23.0849 44.1839 23.1124 44.2623L23.7256 46.0118C23.7549 46.0955 23.831 46.1547 23.9208 46.1636L34.6179 47.2286C34.7872 47.2455 34.9179 47.0837 34.8626 46.9258L33.9716 44.3837C33.9419 44.2988 33.864 44.2392 33.7727 44.2316L27.5281 43.7113C27.3342 43.6951 27.2464 43.4659 27.3809 43.3268Z" fill="#ECFFCE"/>
<path d="M50.1951 35.4947L43.7962 34.6049C43.7101 34.593 43.6384 34.5349 43.6101 34.4542L42.7256 31.9304C42.668 31.7662 42.8114 31.6005 42.9859 31.6297L53.9524 33.4635C54.0358 33.4774 54.1045 33.5348 54.132 33.6132L54.7452 35.3628C54.7746 35.4464 54.7518 35.5395 54.687 35.6016L46.954 42.9937C46.8316 43.1107 46.6277 43.0638 46.5723 42.9059L45.6814 40.3638C45.6516 40.2789 45.6755 40.1844 45.7424 40.1224L50.3201 35.8868C50.4623 35.7553 50.3877 35.5215 50.1951 35.4947Z" fill="#9FA8FE"/>
<path d="M50.1951 35.4947L43.7962 34.6049C43.7101 34.593 43.6384 34.5349 43.6101 34.4542L42.7256 31.9304C42.668 31.7662 42.8114 31.6005 42.9859 31.6297L53.9524 33.4635C54.0358 33.4774 54.1045 33.5348 54.132 33.6132L54.7452 35.3628C54.7746 35.4464 54.7518 35.5395 54.687 35.6016L46.954 42.9937C46.8316 43.1107 46.6277 43.0638 46.5723 42.9059L45.6814 40.3638C45.6516 40.2789 45.6755 40.1844 45.7424 40.1224L50.3201 35.8868C50.4623 35.7553 50.3877 35.5215 50.1951 35.4947Z" fill="#9FA8FE"/>
<path d="M50.1951 35.4947L43.7962 34.6049C43.7101 34.593 43.6384 34.5349 43.6101 34.4542L42.7256 31.9304C42.668 31.7662 42.8114 31.6005 42.9859 31.6297L53.9524 33.4635C54.0358 33.4774 54.1045 33.5348 54.132 33.6132L54.7452 35.3628C54.7746 35.4464 54.7518 35.5395 54.687 35.6016L46.954 42.9937C46.8316 43.1107 46.6277 43.0638 46.5723 42.9059L45.6814 40.3638C45.6516 40.2789 45.6755 40.1844 45.7424 40.1224L50.3201 35.8868C50.4623 35.7553 50.3877 35.5215 50.1951 35.4947Z" fill="#ECFFCE"/>
<path d="M40.0095 31.0991L37.3964 31.9962C37.304 32.0279 37.2413 32.1129 37.2394 32.2089L36.9254 48.5289C36.9223 48.6876 37.0808 48.8 37.2335 48.7475L39.8466 47.8505C39.939 47.8187 40.0017 47.7338 40.0036 47.6378L40.3176 31.3177C40.3207 31.1591 40.1622 31.0467 40.0095 31.0991Z" fill="#ECFFCE"/>
<path d="M79.6114 49.9155L57.9088 48.4748C57.7783 48.4662 57.6548 48.5561 57.6066 48.6914C50.59 68.3776 51.0645 78.6331 66.0841 94.0359C66.147 94.1004 66.2374 94.1323 66.3237 94.1204C85.7441 91.4433 91.9191 83.5184 98.2623 63.3797C98.3071 63.2372 98.2604 63.0778 98.1472 62.9977L79.7518 49.9658C79.7099 49.9361 79.6616 49.9188 79.6114 49.9155Z" fill="#F588B9"/>
<path d="M84.9296 61.6613L74.4641 58.9715L66.0785 70.99L71.3833 72.3534L65.1101 82.485L81.0448 70.5844L74.3959 68.8756L84.9296 61.6613Z" fill="#ECFFCE"/>
</svg>
