<svg width="38" height="40" viewBox="0 0 38 40" fill="none" xmlns="http://www.w3.org/2000/svg">
<g filter="url(#filter0_f_55_2588)">
<path d="M27.7319 32.7342L27.2921 32.6249L27.904 30.1623C30.3864 29.1917 32.4055 27.0788 33.1049 24.2643C34.5691 18.3717 29.5277 12.73 23.5066 13.6617C24.0327 12.6719 23.9213 11.617 23.2827 10.8047L23.2364 9.1123L24.9522 10.099L25.8264 6.58094L23.8483 6.64969L24.835 4.93387L21.317 4.05967L21.3857 6.03776L19.6699 5.05111L18.7957 8.56912L20.7738 8.50037L19.9406 9.9742C19.084 10.415 18.4039 11.2732 18.4055 12.3942C13.5208 8.75245 6.42504 11.3781 4.96077 17.2708C4.26141 20.0852 5.05668 22.8975 6.79596 24.9172L6.18402 27.3798L5.74427 27.2705C5.04067 27.0957 4.27203 27.5583 4.0972 28.2619C3.92236 28.9655 4.38503 29.7342 5.08863 29.909L27.0762 35.3727C27.7798 35.5476 28.5484 35.0849 28.7233 34.3813C28.8981 33.6777 28.4355 32.9091 27.7319 32.7342ZM9.92058 27.3745C9.39288 27.2433 9.1285 26.8041 9.25963 26.2764C9.39076 25.7487 9.82998 25.4843 10.3577 25.6155C10.8854 25.7466 11.1498 26.1858 11.0186 26.7135C10.8875 27.2412 10.3603 27.4837 9.92058 27.3745ZM13.4386 28.2487C12.9109 28.1175 12.6465 27.6783 12.7776 27.1506C12.9088 26.6229 13.348 26.3585 13.8757 26.4897C14.4034 26.6208 14.6678 27.06 14.5366 27.5877C14.4055 28.1154 13.8783 28.3579 13.4386 28.2487ZM15.1923 24.9492L7.62857 23.0697C6.61528 21.5106 6.23897 19.6428 6.71977 17.7079C7.94364 12.7827 13.9195 10.9059 17.6827 14.1756C17.7706 14.1974 17.7488 14.2854 17.8367 14.3072L15.1923 24.9492ZM22.5296 6.69553C23.0573 6.82666 23.3217 7.26588 23.1905 7.79358C23.0594 8.32128 22.6202 8.58566 22.0925 8.45453C21.5648 8.32341 21.3004 7.88418 21.4315 7.35648C21.5627 6.82878 22.0019 6.5644 22.5296 6.69553ZM20.6719 14.1713C21.1996 14.3024 21.464 14.7417 21.3329 15.2694C21.2018 15.7971 20.7625 16.0614 20.2348 15.9303C19.7071 15.7992 19.4427 15.36 19.5739 14.8323C19.705 14.3046 20.1442 14.0402 20.6719 14.1713ZM19.1421 20.3278C19.6698 20.459 19.9342 20.8982 19.803 21.4259C19.6719 21.9536 19.2327 22.218 18.705 22.0868C18.1773 21.9557 17.9129 21.5165 18.044 20.9888C18.1752 20.4611 18.6144 20.1967 19.1421 20.3278ZM16.9566 29.1229C16.4289 28.9917 16.1645 28.5525 16.2957 28.0248C16.4268 27.4971 16.866 27.2327 17.3937 27.3639C17.9214 27.495 18.1858 27.9342 18.0547 28.4619C17.9235 28.9896 17.3964 29.2321 16.9566 29.1229ZM20.4746 29.9971C19.9469 29.8659 19.6825 29.4267 19.8137 28.899C19.9448 28.3713 20.384 28.1069 20.9117 28.238C21.4394 28.3692 21.7038 28.8084 21.5727 29.3361C21.4415 29.8638 20.9144 30.1063 20.4746 29.9971ZM23.9926 30.8712C23.4649 30.7401 23.2006 30.3009 23.3317 29.7732C23.4628 29.2455 23.902 28.9811 24.4297 29.1122C24.9574 29.2434 25.2218 29.6826 25.0907 30.2103C24.9596 30.738 24.4324 30.9805 23.9926 30.8712ZM20.4693 26.2605L23.1137 15.6185C23.2017 15.6404 23.2235 15.5524 23.3115 15.5743C28.1674 14.4464 32.5697 18.902 31.3459 23.8273C30.8651 25.7622 29.6583 27.2365 28.033 28.14L20.4693 26.2605Z" fill="#F3F3F1"/>
</g>
<defs>
<filter id="filter0_f_55_2588" x="0.0600586" y="0.0596924" width="37.3003" height="39.3501" filterUnits="userSpaceOnUse" color-interpolation-filters="sRGB">
<feFlood flood-opacity="0" result="BackgroundImageFix"/>
<feBlend mode="normal" in="SourceGraphic" in2="BackgroundImageFix" result="shape"/>
<feGaussianBlur stdDeviation="2" result="effect1_foregroundBlur_55_2588"/>
</filter>
</defs>
</svg>
