<svg width="154" height="118" viewBox="0 0 154 118" fill="none" xmlns="http://www.w3.org/2000/svg">
<path d="M153.488 66.2445C166.28 101.389 148.159 140.249 113.015 153.04C77.8704 165.832 39.0107 147.711 26.2192 112.567C13.4277 77.4223 31.5483 38.5626 66.6926 25.7711C101.837 12.9796 140.697 31.1001 153.488 66.2445Z" fill="#CAC48E"/>
<path d="M65.0905 77.7809C68.1595 71.3936 75.806 68.716 82.1681 71.7899L109.377 84.9364C115.742 88.0118 118.422 95.6842 115.351 102.075C112.282 108.462 104.636 111.14 98.2735 108.066L71.0643 94.9192C64.6992 91.8438 62.0199 84.1713 65.0905 77.7809Z" stroke="#FFFAC2" stroke-width="3.99029"/>
<rect x="99.248" y="84.7378" width="17.4757" height="17.4757" rx="8.73786" transform="rotate(25 99.248 84.7378)" fill="#FFFAC2"/>
</svg>
